# xmcd CD database file
#
# Track frame offsets:
#	183
#	19358
#	32023
#	45438
#	62025
#	78265
#	90160
#	99280
#	124000
#	134318
#	146165
#	159475
#	172443
#	186295
#	199915
#	219688
#	233003
#	242708
#	257560
#	275118
#
# Disc length: 3822 seconds
#
# Revision: 0
# Processed by: cddbd v1.4PL0 Copyright (c) Steve Scherf et al.
# Submitted via: CDex 1.50
#
DISCID=1e0eec14
DTITLE=Ray Charles - The Best of Ray Charles
DYEAR=1900
DGENRE=Blues
TTITLE0=I can't stop loving you
TTITLE1=Yesterday
TTITLE2=Crying time
TTITLE3=Georgia on my mind
TTITLE4=Your cheating heart
TTITLE5=Halleluja I love her so
TTITLE6=Hit the road Jack
TTITLE7=What'd I say
TTITLE8=Yes indeed
TTITLE9=Lonely avenue
TTITLE10=I got a woman
TTITLE11=Unchain my heart
TTITLE12=A fool for you
TTITLE13=You are my sunshine
TTITLE14=That lucky old sun
TTITLE15=Take these chains from my heart
TTITLE16=Busted
TTITLE17=You don't know me
TTITLE18=Ruby
TTITLE19=In the heat of the night
EXTD=
EXTT0=
EXTT1=
EXTT2=
EXTT3=
EXTT4=
EXTT5=
EXTT6=
EXTT7=
EXTT8=
EXTT9=
EXTT10=
EXTT11=
EXTT12=
EXTT13=
EXTT14=
EXTT15=
EXTT16=
EXTT17=
EXTT18=
EXTT19=
PLAYORDER=
